<mxfile host="app.diagrams.net" modified="2023-04-27T11:01:33.117Z" agent="Mozilla/5.0 (Windows NT 10.0; Win64; x64) AppleWebKit/537.36 (KHTML, like Gecko) Chrome/112.0.0.0 Safari/537.36 Edg/112.0.1722.58" etag="8-rqSB9kYVPSrYntBJfp" version="21.2.3" type="google">
  <diagram name="Страница 1" id="EGQQI0s4ZyaApQNdaXgU">
    <mxGraphModel grid="1" page="1" gridSize="10" guides="1" tooltips="1" connect="1" arrows="1" fold="1" pageScale="1" pageWidth="827" pageHeight="1169" math="0" shadow="0">
      <root>
        <mxCell id="0" />
        <mxCell id="1" parent="0" />
        <mxCell id="h-sGv1JO0ebOxO8K2vgO-1" value="" style="shape=image;verticalLabelPosition=bottom;labelBackgroundColor=default;verticalAlign=top;aspect=fixed;imageAspect=0;image=data:image/png,iVBORw0KGgoAAAANSUhEUgAAAggAAAGbCAYAAACh5mgTAAAAAXNSR0IArs4c6QAAAARnQU1BAACxjwv8YQUAAAAJcEhZcwAADsMAAA7DAcdvqGQAACz7SURBVHhe7d0PeFT1ne/xTwLlUhoC65beTtDVJ0kTehfk2uTirXA1gIZa6p9NFFu7JDR5Wm2xestDkrLqPrW1sJBc1KqtbG9SSKqVlcwDUqpESVMX9YFNpIrPQrKRK0Iy9OqlIYkUkcy5Z2Z+gSRnhkzIRObP+/U8R3/nzJ/MfDlzzmfO+Z3fJFk2AQAADJBs/g8AAHAWAQEAADgQEAAAgAMBAQAAOBAQAACAAwEBAAA4EBAAAIADAQEAADgQEAAAgAMBAQAAOBAQAACj1K029y/lbjtl5hEPCAgAEI08bhUnJSnpgqe75facMU82el5Pi7bZIaBiflqQvzVDdx2arfysiebeCI9XvW1Ncg+sa2aVWiL3zzYqBAQAiEJnOg/pVc1U0frd6uyz5PtdvcD0sTrr7zL3ylNlc8+A2+ypp1UNlUVymXuM3ml5Gh/SwrRc3Vr4Ha1r8pjlRl65qnc1afvKOUoxizA8r2evNlXcqMnZ81X4eLuyv/8L7Wo9Iat9pXLGmztdZAQEAIhK4zSjslpP/mCuXCPZUqdk6YaV/0u/Lj+uQ52jPeRvf8NteVJ3LnxNc6q3q7nzo8FhxDf9fq1KFmQRDsJmB669T+pbOVdr2brOQADcZdew4BYtyEo194kOBAQAiEpTlD//v1zgjvcS5S76sh0xRqm3WU+tfEWLmzdrbcnXlOOaYG7AhfEdjVmjO6++R7WefK3a9aJ+NdIA+AkiIABAFEpOu06LsyeZuZFKVuqcAi1OG80O3avuvb/VS4tX6e6cqWYZLlz/0ZgfqUkzVVL/z3p4wfSo3gkTEAAgCiW7MpSRMopNdMrlyhrNN35vm7aslyq+k8vpg0jwH42ptMOB5Cp5SD++9fKo3wETEAAgEXg9atn2jKqKZ5krDwJTWnGVtjS2qdfcrZ+3/TW5/zZPuan2bqK3TY1bqlScNvzj+p1pqVLmgL8z3JRZ1aJTIR/Tf0XGEbmLM4PcPl9VLb3n+Zvm8SGvDAk8/pzT8rT8TluqipU28H5pxara0qS2Xq+5X7i61PLUj1Xm7+B5ux6u+Kqmx8Le1wIAxJCPrc76uyzf5lvKsyqbe8zy8+jZb1UXzbTvn2+V1x+wAo/4yOrc84RV5PI9z0yrpP5dq8+/3Mf3N+6ziurfs/o6G6xVeRlWXnm91doTuEdf525rvf/5ZLmKNloHzHKHvqPWrlX5VkZls/2MA3zcbFVm+P6uPeX9yNrV+ZG5wWYeE3h/M62i6v3m9fY7YR2oLrFc/tvtv19Sbx0d+OdH9HiXlbeqweoc9PL7b7dvC/Weh/7NYfQdrbdK/HW2H1u+y/4LsYEjCAAQ13x9CZ7RA7VvSxk3aMnNM8wpgwlyzblDxUtz7Pbbqil/TvvOXn9/Sp2H/qxZU9/Txh+u0Mb0dfr1mgJlmVMeya65+sGT1arMc8lTu0rfXb1LnmBfqpOn69rCG3S+HgwZi7+maweeCjGPyfDPzNUtN/a/3n6pmnHjYt3gb2fohsX/bfC38RE9Pk1zrr9qcCfB7mb96oEaeZStxUvyB7znL6u0+Cb/5aOemsf1m32hjp0MdUrtO59Vjf/q0Bwtvf6v9R/btqimYtHgIxPuluA1vIgICAAQ55LTsnWDvWdzXZeuzw/a6k/VF6/ODTTfadfh9/sTwp91eH+3PDt/bgeL/6Sl37zWeUg8JVffeXCZvcP0qGnNKj3a9IG5YaydVsfrjXrJ375Msy7/K3/rwkzWtClDBndK/pyyb5hpF+tvlf75gX04kpX6xVwTLI5o/+E/+1vD69XR1kOm3aK6X7+k/zP5Si1Zu1OW9ZE6m2tVnv2SygpzlfOtTTo44tMXY4eAAABxLVkpM4q1qdNSZ3XBCM5979f6dc/Yu/9cXf3FYMcA7B3mtYVa4f+qbu/4nn5FHWO+b/NdCVCjJw9N03yzJOJSZqpk035ZnU+oYHoELus8c1hv1LcE2hmV2l69UredHTdiglw5S7Xm10+oxA5wntplWvCTJnX7b7v4CAgAkHDMEL819+vOwg1m2QUYf7m+VOg7RWHv3F5oVusYf/v1dmzX6le+pH/45ix9ooMN+jpp+oZDvvMe1ZpFF2RuutKCvPDk6Qv0vRWL/W3Puqe0JUp+04KAAAAJo1ttjZtVVTxbWT9tlveKYm04O2zzhZioKdMmB5qe4+r6cAwDQu9ePfaktPy+T2pI50CI8l/JkPVTveH9gko3/ExF5tbImqrZ8/NMv4lDaj0abv+GsUVAAIC459vZ7bSDwVzlberU7PtfVeemwKFus3sf4tOa+vlwBkeaqLT0bNMeQ97Dcq9+Q9f+w02fzOWBvW16qepbysr7ld6dfb/aOjdp5W15ypo8dn98fFq65vpbXTrW9Rd/62IjIABAXLPDwcE6Lc/7isreK9H2J+/TDcOO+Z+iS7PTTbs1vN90yMjU5dPG4sB/tw7WvaBxy0uUM5qBo8LV+7Zqlhcqv+z/acX2x7TyhlH+zsSA0zD2nl89oQ6yTLtcs/yHEKbq81M/7V90sREQACCuHdfeXz2uWo9L+Utv1FVh7WQnKnPeV5Tvb7fqpTeP2jEjGN/lkK3+lqvwS/pC0HwwTpdd8pkL3Nn06NALv9YLl92kmyLRYXBYAy4JzS/QzVdFYojpVGVf/d8Dv665v11HQ/XTeP+w9r/ja6Qr+9JP5iTKcAgIABDPzvai92h/a2fIkQ+HSs5cqLtKZtotjxo2v6b2YPs171G9+ZIvINyuh0uvsXeFQ52x93uHlTr1QgPCW9qvBfr2J/abBSf1H2+8br9j2/l25iMyQdPzi7Qiz3eZwnY9/fKRoGHL29OlY/b/XeV367asIZdeXiQEBACIKWfU03XctHv0/olhDv8nf0aXZPi/v8pTt0nVez3+HZTX0yJ31T1a9niz/zbfkYauntP+vgruFvv5ky/XrT9+yH/5nRoe0U83vh10OObNDX+toup/1BKzU/N2uFWaNkvFj7wqz5kOvb7j8AjHKvDq5Inj9q7aJ9hAR+d2psHHIxj4+JEar8mXTAs07Z35pmo7LASKpRZ3lUqXPa52/40ndazrQ3l7D2qbe9/wlyWm5OruqjLl+QaketytfUODh/ewtq59RA2u5Xri3nlBgtZFYkZUBABEvT6rp7XeKs9zmaGEhxnq2O8j62j98rNDE5+b8q1Vu45aHzVXWhlnlw0devgjq3PXj6w8/20zraL1u81t/a8jZ8Ayn4HDQJspb73VPOj12Y9tXm+e03f70KGW37XqSwJDGjuHgPYZbqjlgY+/3apu/Yu54Zy+1mor3397hn846YEGDot8bjJ1+WjAENG+aehrP69ztXQVrbcaWs2Ayz0HrPryfEuuEqv6QHQNwkxAAIAY8PGgHXmw6S6rvnPQLx4McMJqrV91dqc8eAc14HcaNu4Z8rsEPr4w8HvrucqiASHD9zsF/2xtbe4csvO27+3/7YZAgHEVPWHtObsDDRIeBky+32v4S6j3WFRvdfqeorPeKgp2u/lNiuFr5JxcRZXWc/U7rOazr3NICHMVWZUNreb3HAb+TkPtgMeEy/fcu6xqXyDofw2+53/u92d/8yGaJPn+Y79IAAASiG9MiBf0/KaHVVb7WVU2b9fKnOjoHBgt6IMAAEhAqcpacIdW/uq3qi+JxNUK8YeAAABIXMmX6fpvXqtxZhbnEBAAAAnM9yuNs3W5mcM59EEAAAAOHEEAAAAOBAQAAOBAQAAAAA4EBAAA4EBAAAAADgQEAADgQEAAAAAOBAQAAOBAQAAAAA4EBAAA4EBAAAAADgQEAADgQEAAAAAOBAQAAOBAQAAAAA4EBAAA4BDRgJCUlGRaGIi6hEZtgqMuwVGX4KhLaNQmuHDqkmTZTHvU+IcAACA2DLf7j3hAiODTxQ3qEhq1CY66BEddgqMuoVGb4MKpC30QAACAAwEBAAA4EBAAAIADAQEAADgQEAAAgAMBAQAAOBAQYt4HaqzIVVpFo7rNkrjncas4Kcl/mU5Y0/wK1bi3qbEtYSrk5PWoZdsW1VQsGlKfWSquekbubS3yeH13e0kP1ezTGfOw+HDGXmXuHvK+zzelaX7FL+V2u7WtxSO7LPFrpJ+lQdN8VbX0mieKNyNdZwZO8VMXAkKM83a8oqfr7I173ctq7o7rTdk5rgJtsiz1de7W+qKZ/QuVV7lHPfZy37W9gekjdTZvV/WcP6q08FYtzJ5hb/jdautNkDr5+ILBpgrNH5em3Ef/Tbp6lVp7+s7VqK9B937hQ+159CaljUvSuLR8bWj9s06ah8eH8fYq85T9fvvUc2CjilxmsfJVvnGPOvuGrjP/W8un7dY9hYW6NTdN4+yAuSleg4L5LFl9R7VrVb5ZKGVUNuvjszUZOp1Qa8P6AXWMR/3rjL0+7HliwHu9S/WdHw+ph5l6WtVQWWRvieKI/cYiJsJPFzfGri5/sVqrb/c/vzTTKql/1+ozt8SK0dWmzzqxa5VlfyDt58mwiurfM8uH+sjq3PUjK89/P1muknrraJQXKiLrTM9+q7popv1cLiuvvN6yg4G5IYieA1Z9eb7/76qo3uo0i6PN6OvyvrWrPCfwPnWXZW/szXInO4BadgA1951pFVXvt+wAGpUisb583FxpZfjfqyw7IFihK+Pj2/YUneczFz0+yXUmcN/brcrmaF1TzgmnLhxBiGXdr6n6gefMzNuq2bBL7Qn05dh3AGzSlEs0ycyFNkGuBcv1YHmOf85Ts1o/a/rA345bvfb6sPwbKq19W66iNfrFg7cqK+U8H/eUGSp48CeqzIvrr4W2iZoybbJpn1+ya65+8ORvZIcse+5t1ZZ+Q/e5D8ftKYfxaemaa9rDm6jMeddrupmLb+GvM9Jnde2SBeo+ccrMxzYCQsw6rY6X3aqb9aAqVwR2fGp4Ubvb42PFjLxLlLso3xz+a1H9G4fj7Dz7QF1qeeqH/nAgLdaKe2/RjPOFg34pubq7qkx5rx5SZ/wWZ2RSZmrZ6odU4l9x7NB1T6W2dpz235TokrOWanXBZWYO/cbn3K0fL/ismYttBIRY5T2knRv2aWnFvVpx1/cUOHu4W3XPv6V47TaE8Hg7GvXz9TsCM/kFuvmqqYH2sJKVclWBvv+VT5t5+CRPX6DvrVgcmPG4tWHnofjuuAgYBISY5FV3U60eOH2blsy5RMmZ1+iOfN9XHI+a1m/V3kTprDgip3Xs3Xa7Qj4Zmpv+OY33t+PNKbXvfFY1/jfqUv4d1yhzJJ/y5Mt0/W2Xq+ck69A5U3XVzQUmhHvU8ECtmhL5M3bmTbl/e8TMIKBXLe5Gs32JHwSEWOQ9opefbtCspTfqKt+h4+QrNO+OeYHbPA3a2Xw80MZZ3o7faW1/f4285bo3P07Pnnrf1e7Nu81Mtm6YfekIP+TJSs37mvJS2TQMlJw+WzdkmBlPu949lrinGbyH3lIzZ1kG8x7Vm809ZiZ+sBWIQd72XdrwQr4qbssy/4ATlXXb3Sr3nydt0bq1z6uNL4ABvW1qdP9Sq/7+nsC36rxVqt9QqpxwzsnHoj/9u/7Q0P89JlvpaRNNG6My/nNKn9ufEA6p9Whinsjzel7VYz99Sh1mHj7dOrixUg909Jn5+EFAiDkfqKm6WqdX3Ko5A7/lpV6pRUsTubPiO6ot/BszUMmAaXK2FhZ+R+ua7J1mfrVad61WQVaqeUz88fZ06ZhpY6zYNe76i2nHp3fKcvWpoZ8lexqXNk8rav9k7pWINqgw7VND6jJFXyytibvTCz4EhFjT/ZZ21k3X0puvVIpZFHCJ5iz5pvL87d3avPvdBOtIlaGi+vd8F/YGmczALvtLlT1ukSo27fWPGhiPvD3H7agEjE6ogZICg5P9Z3OvRBRsoCR7+1K/ymx74wsBIaacUtuWp1R349e1KHPooWNfD/QbtdR0Vkz4jlSDpCrrhuVa/cRyudSgdctu1Z0PvBSXIWFk17LjwkzV56cm5pUevrEh7rv/7gQZ/yBc9val4Lv6/qwJZj5+EBBiSe9ber5utzw1hbp03MBDXGYa90WV9p9/prPiEBM0/foCLfX30/Coac0qPRqPgyV9xt55+d+jz3F19TCgQUSc+b869Gr/sZl0ZV86+PhdIkn+/BXKHGdmYPyVLk8ffsi2WENAiBlede/dqvUTHlbroLHjh0wndp3trFj39Cvq4CDCOalf0NVnu6LH6WBJA/uiJHBnukjzHnpTL/Xng/yvaJ7jCF4CSf0fKrmFAZIGS1FOwYL4+h0GGwEhVnjbtGVtg268a+H5r2sfsIPw1DyrnYysOICd8med27CdfP9EnP0okc/gESPrdr6VOL/yOWa6tO95txr87QsYWwKIUazmMcGr3n0vqG5/vr55/WXD/KMN3EEkYmfF8zmlE+/3X6vs0qzstCEdPeOBbxyDIj3s74tih8R1T2lL28hCorfjX7VtX5eZw6CRKfPKtHpJ/+XFkPew3P/4DJdVxynW81jgPaKGnz+tCQ8XhTGAzcAdhEcNdS9oXyL9vPH5+K8AaTEz83THvCvi8wOQnKUlj60xP1H7nB746WYdDHMd8Hoa9djOSVoY9vDMca53r9b3j6Ghxaqs+lb8jqExYr4vLtu044ovcUQlTvHPGvV8H0K3Hq9JD3+HNnBkxaZKrXyqOU5/n8GrkyeOh3eawNuhxn9aq3X+Db1LeZUrtSQrXs8jJytlxjf0T1sDv2PvqV2mBcvrhg0J/nDwrPT1ZTlxeGSl38CjSOfnGxTokeWlKvONoeEq0vo9v9SKnPgNTiMdQ8PbsVX33bRbc+M1aJ81cJ1JsI6/VgRF+OnixoXX5SOrc88Tlr2Rt58j3yqvPxDe79H3HbV2rTK/7e+f7Mdu3GN19pnbo8ho1pnBv9fvsvLKa63mzo/MrUZfp9W89WmrcuDv+q/fHZW1GGg0dTmnz+ppfXHAe7fXg+p6a1frCXO7j+8+v7fqq9dblVG6jgw0urrY7/XARvN5CvW5sD9zzTus5yqLLDtb2fcJsV5FmVGvLz0HrPryc9sMV0m9dTTkunDCam1YH6hjfrXVGtfrzMBtcP/6UG+19kT5mw5DOHWJxFborNH9Q8SvC6vLe1Z9UYZZKQdOeVZlc6iY8LHVWX9XkMf0T+d77MXhe10j1llvFTne2zBTXrlVXb91yM4xevlec+QEdnr1z1UO2NANrMuOqN8B9ruwugz3uRg62SGy8mmrPu7rYruQz9LZyWXlVx+wY1d0873WkQtjncmotJo/NnePQb73MJwk33/sO0aE71r8CD5d3KAuoVGb4KhLcNQlOOoSGrUJLpy60AcBAAA4EBAAAIADAQEAADgQEAAAgAMBAQAAOBAQAACAAwEBAAA4EBAAAIADAQEAADgQEAAAgAMBAQAAOBAQAACAAwEBAAA4EBAAAIADAQEAADgQEAAAgAMBAQAAOBAQAACAAwEBAAA4EBAAAIADAQEAADgQEAAAgAMBAQAAOCRZNtMetaSkJNMCAADRbLjdf8QDQgSfLm5Ql9CoTXDUJTjqEhx1CY3aBBdOXTjFAAAAHAgIAADAgYAAAAAcCAgAAMCBgAAAABwICAAAwCF2AkJ3oyrSclXR+IFZAAAAxkqMBITT6njZrTpPi+p2vqVusxQAAIyN2AgI3kPaucEtj9301Ln1csfpwHIAADAmYiAgeNXdVKsHGnzxwOZxa8POQ/ZSAAAwVqI/IHiP6OWnGzRrzRqtcPkWeNSw+TW1kxAAABgzUR8QvO27tOGFfFV8717d9fDtgYUNbj2/ryvQBgAAERflAeEDNVVX6/SKWzUndZIy531F+f7lO7T+X96gsyIAAGMkqgOCt+MVPV03XUtvvlIp9nxy5jW6I99/nkGeupfV3M15BgAAxkIUB4RTat/5rF5Yerduy5oYWJScpdsqlinQFWGj1m5po7MiAABjIHoDQvdrqn7gpFYs+ZJSzSLfy03NvV5L6awIAMCYitKA4FV388uqm1Wgm6+aapYZqV/SkhWLA+2GF7W7/VSgDQAAIiY6A4K3TVvWNujGuxYq0/EKp+qqmwtMZ8Xn9ED1a3RWBAAgwpIsm2mPWlJSkkb/dF71tjymm3JXqMksOS/XKu06+LAWpEbv2ZLI1CU+UZvgqEtw1CU46hIatQkunLpE4V71uPb+yxZNqD6gPvvF+96Ac+rTiV2rTGfF7Xr65SN0VgQAIIKiLiB4257X2rqrdNei9PO8uIGdFd9WzYZddFYEACCCoiwgdGnf827tX1qg66dPMMtCSL1Si5bmBNp0VgQAIKKiKiB4Oxr18/WT9HDpNQMubQzls8or/Z7prLhbdc+/pV5/GwAAjFYUBYQu7ftNjWpmfUXzMs3ASMM4N7KiR01lP9ZTLfw+AwAAkRAdAcHr0d5H7tNNZTuk0+16uz28Cxe9fzqi9tNmRjtUtnKNNrV46LAIAMAoXfzLHD1uFacVqtbMnpVRqeaDK5Uz3swPckTu4vkqrH3HzA9x3sd+8rjMJjRqExx1CY66BEddQqM2wYVTlygcByH+UJfQqE1w1CU46hIcdQmN2gQXTl2i7CoGAAAQDQgIAADAgYAAAAAcCAgAAMCBgAAAABwICAAAwIGAAAAAHAgIAADAgYAAAAAcCAgAAMCBgAAAABwICAAAwIGAAAAAHAgIAADAgYAAAAAcCAgAAMCBgAAAABwICAAAwIGAAAAAHAgIAADAgYAAAAAckiybaY9aUlKSaQEAgGg23O4/4gEhgk8XN6hLaNQmOOoSHHUJjrqERm2CC6cunGIAAAAOBAQAAOBAQAAAAA4EBAAA4EBAAAAADgQEAADgEAUB4YjcxZn+Sy7CmxapomaL3I1t6jXPkFi86m1rkrumQvOL3fKYpQAARFIUBITLVLCpXVZfp/asL5LLLFXeejX39Pmv0+yf+jqbtbX6v2pv6e0qXJityfP/Qe62bvOAeNettsbNqiqercnZ81VYuk5N5hYAACItek4xJLs0p7RYS/sTwt9crrSUwS8v2ZWjW0rWaldng1bl2XdsWqPCPDskdJw294hXXnU3Pq61b/Qp/bqvKs8sBQBgrERXH4RJUzRtkmmfR7JroX744LLA0QbPk7rnZ7vt79fxLFmpC+5X9co7VVBSpgfLc8xyAADGRnQFhLDZO8zc688ebfDUv6H/OBNox7+JmjJtsmkDADA2YjQgAACAsRSzAcF77F39sb8L/9x0pY03bQAAMGqxGRC8h7V17SNq8M8sVuW9C85d/QAAAEYtxgKC71I/t2pWfUeFNW/b8/kqr6/S3TlTAzcDAICIiN6AUFuoNMcgSVOUvbBQpet8xw5uV3XrNq0tmKGUwCMAAECERG9AKKpX54BBks5NfeppfVGVRQdUmp2u+RV1avHE+zgIAAB8smKwD0KyUrIWacXqh1Ti8qhpXZFy71yjRkICAAARE5udFG3J06/VN5eaAYOafqS/fzTeB0sCAOCTE7MBQZqqL16da9qJNlgSAABjK4YDwnhNuzxTGWZOJ4/rxEmvmQEAAKMRwwHBq5MnjuukmdOsTF065MedAADAhYnhPepxNe9sUGAwRZfy77hGmeQDAAAiIrp2qSdP6P2zhwTO57Q8jU/qJ+taArN5ZVq9JCuW086FOdalHs6qAADGQPTsU70e7a3epLr+31d4b48aWjwavP+zg0HL77Sl6tvKWfgjNdlLXEVPaM8zy5WTIKcXvJ7XVb+jNTCz/1XtbuPaDQBA5CVZvtGHIsQ32uHIn+6I3MXzVVj7jpkPR77Kq7+tq6+4UvkLsqJ+JMULq8sQZ1pUNSNXZUHLlKfK5u1amRN7Y0pGpDZxiLoER12Coy6hUZvgwqlLFASE+EddQqM2wVGX4KhLcNQlNGoTXDh1oVsfAABwICAAAAAHAgIAAHAgIAAAAAcCAgAAcCAgAAAABwICAABwICAAAAAHAgIAAHAgIAAAAAcCAgAAcCAgAAAABwICAABwICAAAAAHAgIAAHAgIAAAAAcCAgAAcCAgAAAABwICAABwICAAAAAHAgIAAHAgIAAAAAcCAgAAcEiybKY9aklJSaYFAACi2XC7/4gHhAg+XdygLqFRm+CoS3DUJTjqEhq1CS6cunCKAQAAOBAQAACAAwEBAAA4EBAAAIADAQEAADgQEAAAgEN0BwSvRy3btqimYpH/koxz0ywVVz0j97YWeby+u72kh2r26Yx5WHzzqretSe6aCs0vdstjlgIAEEnRGRB8wWCTvQMcl6bcR/9NunqVWnv6/Nds+qe+Bt37hQ+159GblDYuSePS8rWh9c86aR4en7rV1rhZVcWzNTl7vgpL16nJ3AIAQKRFX0DofVs138pX7rI6qbxerdvXqKQgT1kpA15qsks5t3xba7c3qr4837/Ic6xLH/pb8cir7sbHtfaNPqVf91XlmaUAAIyV6AoIvnCw/BsqrX1brqI1+sWDtw4OBkOlzFDBgz9RZZ7LLIhXyUpdcL+qV96pgpIyPVieY5YDADA2oiggdKnlqR/6w4G0WCvuvUUzzhcO+qXk6u6qMuW9ekidCdEJYaKmTJts2gAAjI2oCQjejkb9fP2OwEx+gW6+amqgPaxkpVxVoO9/5dNmHgAAjFaUBIRTat/5rGr8XfJdyr/jGmWO5JUlX6brb7tcPSe9ZgEAABiN6AgI3ne1e/NuM5OtG2ZfOsIXlqzUvK8pLzVqDogAABDTomOP+qd/1x8a+q/oz1Z62kTTBgAAF0NUBARvT5eOmTYAALj4oiQgHNc7pg0AAC6+qAgI49PSNde0AQDAxRcdfRA+M1WfPzvW0XF19STGryoAABCtoiMgpF6pRUv7Rwc8pNajvaYNAAAuhugICLpEuYvyFTiI0KK6nW+p298GAAAXQ5QEBN84BkV6OD8QETzrntKWtlP+dri8Hf+qbfu6zBwAABiNKAkItuQsLXlsjYr8GeE5PfDTzTrYG97IiF5Pox7bOUkLwx6eGQAAnE/0BAT7paTM+Ib+aesT/pDgqV2mBcvrhg0J/nDwrPT1ZTlKMcsSxrEu9TC6NABgDERRQPCZINec7+rJphdVWTTTHxK+OPlGVdS41dg2sFeCV71tTXLXPKL1DSn6+n0L5IqydzJWvJ7XVb+jNTCz/1XtHlQXAAAiI8mymfaoJSUlKXJPd1qelpf1+v/5d227t0y1/SMx++SVq/r712n2l69XjmuCWRi9IlKXMy2qmpGrsqAjSuWpsnm7VubE3jGUyK4z8YO6BEddgqMuoVGb4MKpSxQHhPhBXUKjNsFRl+CoS3DUJTRqE1w4dUmQA/MAAGAkCAgAAMCBgAAAABwICAAAwIGAAAAAHAgIAADAgYAAAAAcCAgAAMCBgAAAABwICAAAwIGAAAAAHAgIAADAgYAAAAAcCAgAAMCBgAAAABwICAAAwIGAAAAAHAgIAADAgYAAAAAcCAgAAMCBgAAAABwICAAAwCHJspn2qCUlJZkWAACIZsPt/iMeECL4dHGDuoRGbYKjLsFRl+CoS2jUJrhw6sIpBgAA4EBAAAAADgQEAADgQEAAAAAOBAQAAOBAQAAAAA5REBCOyF2c6b/kIrxpkSpqtsjt/p1aPKfNcwC23jY1un+pivn3yO05YxZC6lZbo1s1FX+nYvcRsww4Dz5LsEVBQLhMBZvaZVkndKC6RC6zVHnl2tjcqT7L8l+r6Z/6OtW8tVjT/vCQCgsXKzftCs2vqCMoJDSvvS1r0paqYqVNztbCwu9oXRMbND/fRn5LlYrTpih7YaFK1+03NwDB8FnCYFF0iiFVM277ppb2J4S/uVr5Oa7BLzDZpZxb7tTKTS3q3POEilweNa0rUm7Od1VzsNvcCQmlu0mr1zZL6fO0NO9svIQ+UOPqn+sNXaHrluabZcB58FnCUPY384gZ9dN93GxVZsj/PCqqtzrN4uD6rJ4DG60il7m/a7lVf/Qjc1t0iXCZ40rkatNnndi1yrI3a/Zz3mXVd35slsemiK4zJ3ZZ5f7PSYZVVP+eWRib+CwFF9m68FlKBOHUJYY7KSYrZcY3tPqJ5YHTEp4ndc8//lYdXv+NSDjJmjTlEk0ycxhg0hRNozAIG58lBMRwQPCZoOn5RVphDod5ap7VzvZT/jYAALhwMR4QbClX6ual88zMc3qg+jXRGwEAgNGJ/YCgiUqfPUcZZs7zx3d1jNMMAACMShwEBGl8Wrrmmrb2t+toLwkBAIDRiIuAMIjnuLo+JCAAADAa8RcQAADAqMVfQHBdoqmfIfcAADAacbEnPdN5SK+atmZl6tIUAgIAAKMRB3vSUzr05l6942+7lH/HNcokHwAAMCqxvyvtfUvP1+02M/N0x7wr6FgBAMAoxfi+9LQ6Gmq1vsljt13Kq1ypJVkTAzcBAIALFsMBwavelif194VPyhcPlFemqrtzleK/DQAAjEZ0BYSTJ/T+SdM+r9Py7P2Flt+0Qk32nKvoCe15Zrly6JwIv+Pq6uF37J1O6ljXh3a0BsLFZymRRdEetVsHtzytOv/hANt7e9TQ4hm8MfN61LLtGVUV5yjt6ntU68lX+cY9avnVcs1xTTB3QkLyduiV+pdMZ9UD+sPudvX624nODtOv/FY7/IXxaP8f9qiNkUZxPnyWYCT5fvPZtEctKSnJ9wPTZi5cR+Qunq/C2sDqOCxXkSp/dovSP3W5vnxTjlwxcNDgwuqSGEZfm161VN2k3DLfsSSnjMpmHVyZo/FmPlZEYp0501KlGbllZkM/REalmg+uVE6MFYbPUnCRqQufpUQSTl2iICDEP+oSGrUJjroER12Coy6hUZvgwqkLJ+0BAIADAQEAADgQEAAAgAMBAQAAOBAQAACAAwEBAAA4EBAAAIADAQEAADgQEAAAgAMBAQAAOBAQAACAAwEBAAA4EBAAAIADAQEAADgQEAAAgAMBAQAAOBAQAACAAwEBAAA4EBAAAIADAQEAADgQEAAAgEOSZTPtUUtKSjItAAAQzYbb/Uc8IETw6eIGdQmN2gRHXYKjLsFRl9CoTXDh1IVTDAAAwIGAAAAAHAgIAADAgYAAAAAcCAgAAMCBgAAAAByiICAckbs403/JxYVMmVUtOmOeKTF41dvWJHdNheYXu+UxS4HQutXW6FZNxd+p2H3ELAOA84uCgHCZCja1y7I+UueuHynPLFVGpZo/tvzXaTqnPvW0vqjKopnmzonAt5HfrKri2ZqcPV+FpevUZG4BguptU+OWKhWnTVH2wkKVrttvbgCA4UXRKYYJcl37NS3OMLPnlayUrEVacf8PlLH/sN43S+OXV92Nj2vtG31Kv+6r50IUENIHalz9c72hK3Td0nyzDADCF119EMZ/Tulzw0oIfsmZ1+iO6ePMXDxLVuqC+1W98k4VlJTpwfIcsxwI5bNasPpRrbztNpXcX6Fyl1kMAGGK7U6KyTNUsvoWJda2b6KmTJts2kAYJk3RtEmmDQBhiu2AAAAAxkSMBoRetbgb6cEPAMAYic2A4D2qN5t7zAwAAIi02AsIXo/2PrZGD3T0mQUAACDSojcgvFOm3E8FGRxpXJquXlHL6QUAAMZQ9AaEUAMl9XVqz/qiBLtyAQCAT1bsnWJIdmnOfav0cEKMfwAAwMURm50Ukz+rKzInmhkAABBpsRkQfKPElSziNAMAAGMkRgMCAAAYS3EQEE6rw/2INrWdMvMAAGC0Yj8g9P5Rv9lxib5MnwQAACImugKC90N1HTtpZsLgPSz3fd/TS3OvVmYiniw51qUer2kDwzpprzIfilUGQDiiaLfarbattaprMEMgnXxXh/90OtB28Kq3baeqvvU1Fdak6455VyRMZwqv53XV72gNzOx/VbvbugNtIKjT8rzyW+14x9f2aP8f9qitl4gAYHhJlm/0oQjxjXQ48qc7InfxfBXW+rdgI5dfrdYXSpQVxQnhwuoyxJkWVc3IVVnQMuWpsnm7VuakmPnYEZHaxKFI1OVMS5Vm5JYp6CrjG4js4ErljDfzMYL1JTjqEhq1CS6cukRBQIh/1CU0ahMcdQmOugRHXUKjNsGFU5dEPHMPAACGQUAAAAAOBAQAAOBAQAAAAA4EBAAA4EBAAAAADgQEAADgQEAAAAAOBAQAAOBAQAAAAA4EBAAA4EBAAAAADgQEAADgQEAAAAAOBAQAAOBAQAAAAA4EBAAA4EBAAAAADgQEAADgQEAAAAAOBAQAAOBAQAAAAA4EBAAA4JBk2Ux71JKSkkwLAABEs+F2/xEPCBF8urhBXUKjNsFRl+CoS3DUJTRqE1w4deEUAwAAcCAgAAAABwICAABwICAAAAAHAgIAAHAgIAAAAIcoCAhH5C7O9F9yMeIps0otZ8zTAMCIeNXb1iR3TYXmF7vlMUth621To/uXqph/j9weNrKJKgoCwmUq2NQuq69Te9YXyWWWqqhenZblv05z8NSnntYXVVk009wRAEaiW22Nm1VVPFuTs+ersHSdmswtiS0QmLZUFSttcrYWFn5H65oIB4ksek4xJLs0p7RYS88mhFCSlZK1SCsff0zlnzaLACAsXnU3Pq61b/Qp/bqvKs8sha27SavXNkvp87Q0b9gNMRJAdPVBmDRF0yaZ9nBS52hJyTidOOk1CwBgOMlKXXC/qlfeqYKSMj1YnmOWwy6MVlev1G0Fpbr/wWXnjuYiYcVwJ8UU5fzgB1qQGsNvAcBFNFFTpk02bZyTbH9Xu0ThfldD/GLvCgAAHGIvIJx5U+7fHjEzAABgLMRcQPAeekvNp80MAAAYE7EVEHrf1safPqUOMwsAAMZG9AaE2kKlDR0YafIsldb+ydwBAACMlegNCMEGSuo5oPryWeYOAABgrMTWKYaUGSr4n6UiIgAAMLZirpOipl2m9AmmDQAAxkTsBYTxs1XwtcvMDAAAGAuxFxAAAMCYIyAAAAAHAgIAAHCIroBw8oTeP2nax7rUww81AvgksL0J4bi6es6YNhJN9AQEr0d7qzepzmPmGzareutB9ZpZAIgkr+d11e9oDczsf1W727oD7UTn7dAr9S/pHf/MAf1hdzvb4QSVZPlGIIoQ32iHI3+6I3IXz1dhbWB1DCajslkHV+ZovJmPNRdWl8RAbYKjLsFFpC5nWlQ1I1dlQTc5eaps3q6VOSlmPjZEZn3pVUvVTcotazLzg8XqdpjPUnDh1CUKAkL8oy6hUZvgqEtw1CU46hIatQkunLrQSREAADgQEAAAgAMBAQAAOBAQAACAAwEBAAA4EBAAAIBDxC9zBAAA0W+43T/jIHwCqEto1CY46hIcdQmOuoRGbYILpy4RDQgAACA+0AcBAAA4EBAAAIADAQEAADgQEAAAgAMBAQAAOBAQAACAAwEBAAA4EBAAAIADAQEAADgQEAAAgAMBAQAAOBAQAADAENL/BzVJHUXqJtgPAAAAAElFTkSuQmCC;" vertex="1" parent="1">
          <mxGeometry x="360" y="60" width="280" height="221.31" as="geometry" />
        </mxCell>
        <mxCell id="h-sGv1JO0ebOxO8K2vgO-11" style="rounded=0;orthogonalLoop=1;jettySize=auto;html=1;exitX=1;exitY=0.5;exitDx=0;exitDy=0;entryX=0;entryY=0.5;entryDx=0;entryDy=0;" edge="1" parent="1" source="h-sGv1JO0ebOxO8K2vgO-2" target="h-sGv1JO0ebOxO8K2vgO-4">
          <mxGeometry relative="1" as="geometry" />
        </mxCell>
        <mxCell id="h-sGv1JO0ebOxO8K2vgO-17" style="rounded=0;orthogonalLoop=1;jettySize=auto;html=1;exitX=1;exitY=0.25;exitDx=0;exitDy=0;entryX=0;entryY=0.5;entryDx=0;entryDy=0;" edge="1" parent="1" source="h-sGv1JO0ebOxO8K2vgO-2" target="h-sGv1JO0ebOxO8K2vgO-5">
          <mxGeometry relative="1" as="geometry">
            <mxPoint x="20" y="120" as="targetPoint" />
          </mxGeometry>
        </mxCell>
        <mxCell id="h-sGv1JO0ebOxO8K2vgO-18" value="" style="edgeStyle=orthogonalEdgeStyle;rounded=0;orthogonalLoop=1;jettySize=auto;html=1;" edge="1" parent="1" source="h-sGv1JO0ebOxO8K2vgO-2" target="h-sGv1JO0ebOxO8K2vgO-6">
          <mxGeometry relative="1" as="geometry" />
        </mxCell>
        <mxCell id="h-sGv1JO0ebOxO8K2vgO-2" value="A" style="rounded=0;whiteSpace=wrap;html=1;" vertex="1" parent="1">
          <mxGeometry x="30" y="120" width="20" height="30" as="geometry" />
        </mxCell>
        <mxCell id="h-sGv1JO0ebOxO8K2vgO-9" style="rounded=0;orthogonalLoop=1;jettySize=auto;html=1;" edge="1" parent="1" source="h-sGv1JO0ebOxO8K2vgO-3" target="h-sGv1JO0ebOxO8K2vgO-8">
          <mxGeometry relative="1" as="geometry" />
        </mxCell>
        <mxCell id="h-sGv1JO0ebOxO8K2vgO-3" value="D" style="rounded=0;whiteSpace=wrap;html=1;" vertex="1" parent="1">
          <mxGeometry x="220" y="120" width="20" height="30" as="geometry" />
        </mxCell>
        <mxCell id="h-sGv1JO0ebOxO8K2vgO-10" style="rounded=0;orthogonalLoop=1;jettySize=auto;html=1;exitX=1;exitY=0.5;exitDx=0;exitDy=0;entryX=0;entryY=0.75;entryDx=0;entryDy=0;" edge="1" parent="1" source="h-sGv1JO0ebOxO8K2vgO-4" target="h-sGv1JO0ebOxO8K2vgO-8">
          <mxGeometry relative="1" as="geometry" />
        </mxCell>
        <mxCell id="h-sGv1JO0ebOxO8K2vgO-15" style="rounded=0;orthogonalLoop=1;jettySize=auto;html=1;exitX=1;exitY=0.25;exitDx=0;exitDy=0;entryX=0;entryY=0.75;entryDx=0;entryDy=0;" edge="1" parent="1" source="h-sGv1JO0ebOxO8K2vgO-4" target="h-sGv1JO0ebOxO8K2vgO-3">
          <mxGeometry relative="1" as="geometry" />
        </mxCell>
        <mxCell id="h-sGv1JO0ebOxO8K2vgO-4" value="E" style="rounded=0;whiteSpace=wrap;html=1;" vertex="1" parent="1">
          <mxGeometry x="120" y="200" width="20" height="30" as="geometry" />
        </mxCell>
        <mxCell id="h-sGv1JO0ebOxO8K2vgO-13" style="rounded=0;orthogonalLoop=1;jettySize=auto;html=1;exitX=1;exitY=0.5;exitDx=0;exitDy=0;entryX=0;entryY=0.25;entryDx=0;entryDy=0;" edge="1" parent="1" source="h-sGv1JO0ebOxO8K2vgO-5" target="h-sGv1JO0ebOxO8K2vgO-3">
          <mxGeometry relative="1" as="geometry" />
        </mxCell>
        <mxCell id="h-sGv1JO0ebOxO8K2vgO-5" value="B" style="rounded=0;whiteSpace=wrap;html=1;" vertex="1" parent="1">
          <mxGeometry x="130" y="30" width="20" height="30" as="geometry" />
        </mxCell>
        <mxCell id="h-sGv1JO0ebOxO8K2vgO-12" style="rounded=0;orthogonalLoop=1;jettySize=auto;html=1;exitX=0.5;exitY=1;exitDx=0;exitDy=0;entryX=0.5;entryY=0;entryDx=0;entryDy=0;" edge="1" parent="1" source="h-sGv1JO0ebOxO8K2vgO-6" target="h-sGv1JO0ebOxO8K2vgO-4">
          <mxGeometry relative="1" as="geometry" />
        </mxCell>
        <mxCell id="h-sGv1JO0ebOxO8K2vgO-14" style="rounded=0;orthogonalLoop=1;jettySize=auto;html=1;exitX=1;exitY=0.5;exitDx=0;exitDy=0;entryX=0;entryY=0.5;entryDx=0;entryDy=0;" edge="1" parent="1" source="h-sGv1JO0ebOxO8K2vgO-6" target="h-sGv1JO0ebOxO8K2vgO-3">
          <mxGeometry relative="1" as="geometry" />
        </mxCell>
        <mxCell id="h-sGv1JO0ebOxO8K2vgO-6" value="C" style="rounded=0;whiteSpace=wrap;html=1;" vertex="1" parent="1">
          <mxGeometry x="120" y="120" width="20" height="30" as="geometry" />
        </mxCell>
        <mxCell id="h-sGv1JO0ebOxO8K2vgO-8" value="F" style="rounded=0;whiteSpace=wrap;html=1;" vertex="1" parent="1">
          <mxGeometry x="310" y="120" width="20" height="30" as="geometry" />
        </mxCell>
      </root>
    </mxGraphModel>
  </diagram>
</mxfile>
